<svg id="Слой_1" data-name="Слой 1" xmlns="http://www.w3.org/2000/svg" viewBox="0 0 16 16"><defs>
  <style>.cls-1{opacity:0.5;}
    .Black{fill:#727272;}
  </style>
</defs><title>Icon2</title>
<polygon class="Black" points="6 10 1 10 1 1 6 0.92 6 0 0 0 0 11 6 11 6 10" transform="translate(1,2)" />
<polygon class="Black" points="8 0 8 0.92 13 1 13 10 8 10 8 11 14 11 14 0 8 0" transform="translate(1,2)"/>
<rect class="Black" x="6" y="1" width="2" height="1" transform="translate(1,2)"/>
<g opacity="0.5">
  <rect class="Black" x="2" y="2" width="4" height="1" transform="translate(1,2)"/>
  <rect class="Black" x="2" y="4" width="4" height="1" transform="translate(1,2)"/>
  <rect class="Black" x="2" y="6" width="4" height="1" transform="translate(1,2)"/>
  <rect class="Black" x="2" y="8" width="4" height="1" transform="translate(1,2)"/>
  <rect class="Black" x="8" y="2" width="4" height="1" transform="translate(1,2)"/>
  <rect class="Black" x="8" y="4" width="4" height="1" transform="translate(1,2)"/>
  <rect class="Black" x="8" y="6" width="4" height="1" transform="translate(1,2)"/>
  <rect class="Black" x="8" y="8" width="4" height="1" transform="translate(1,2)"/>
</g>
<rect class="Black" x="6" y="11" width="2" height="1" transform="translate(1,2)"/>
</svg>
