<?xml version="1.0" encoding="utf-8"?>
<!-- Generator: Adobe Illustrator 20.1.0, SVG Export Plug-In . SVG Version: 6.00 Build 0)  -->
<svg version="1.1" id="Слой_1" xmlns="http://www.w3.org/2000/svg" xmlns:xlink="http://www.w3.org/1999/xlink" x="0px" y="0px"
	 viewBox="0 0 32 32" style="enable-background:new 0 0 32 32;" xml:space="preserve">
<style type="text/css">
	.Red{fill:#D11C1C;}
	.White{fill:#FFFFFF;}
	.Black{fill:#727272;}
</style>
<path class="Black" d="M26,2H8C6.9,2,6,2.9,6,4v22c0,1.1,0.9,2,2,2h18c1.1,0,2-0.9,2-2V4C28,2.9,27.1,2,26,2z M26,26H8V4h18V26z"/>
<rect x="4" y="6" class="Red" width="26" height="12"/>
<path class="White" d="M6,16V8h2.5c1,0,1.6,0,1.9,0.1c0.4,0.1,0.8,0.4,1.1,0.8c0.3,0.4,0.5,0.9,0.5,1.6c0,1.3-0.7,1.7-1,2
	C10.4,13,9.3,13,8.6,13h-1v3H6z M7.6,9.4v2.3c0,0,0.6,0,0.8,0c0.7,0,2-0.1,2-1.1c0-0.8-0.8-1.2-1.6-1.2C8.2,9.4,7.6,9.4,7.6,9.4z"/>
<path class="White" d="M14,8h2.6c2.9,0,3.5,2.8,3.4,4.1c0,0.7-0.1,1.2-0.2,1.7C19.6,14.4,19,16,16.7,16H14V8z M15.4,9.4v5.3
	c0,0,1.8,0,2-0.1c0.6-0.1,0.9-0.7,1-1.1s0.1-0.8,0.1-1.5c0-0.6,0-0.9-0.1-1.4c-0.2-0.8-0.7-1.2-1.1-1.2C17.1,9.4,15.4,9.4,15.4,9.4z
	"/>
<path class="White" d="M22,16V8h6v1.4h-4.2v1.9h3.7v1.4h-3.7V16H22z"/>
</svg>
