<?xml version="1.0" encoding="utf-8"?>
<!-- Generator: Adobe Illustrator 20.1.0, SVG Export Plug-In . SVG Version: 6.00 Build 0)  -->
<svg version="1.1" id="Слой_1" xmlns="http://www.w3.org/2000/svg" xmlns:xlink="http://www.w3.org/1999/xlink" x="0px" y="0px"
	 viewBox="0 0 32 32" style="enable-background:new 0 0 32 32;" xml:space="preserve">
<style type="text/css">
	.White{fill:#FFFFFF;}
	.Blue{fill:#1177D7;}
	.Black{fill:#727272;}
</style>
<path class="Black" d="M26,2H8C6.9,2,6,2.9,6,4v22c0,1.1,0.9,2,2,2h18c1.1,0,2-0.9,2-2V4C28,2.9,27.1,2,26,2z M26,26H8V4h18V26z"/>
<rect x="4" y="6" class="Blue" width="26" height="12"/>
<path class="White" d="M6,16V8h2.8c0.7,0,1.2,0.1,1.6,0.2C10.7,8.4,11,8.6,11.2,9s0.3,0.8,0.3,1.3c0,0.6-0.1,1.1-0.4,1.5
	c-0.3,0.4-0.7,0.6-1.3,0.7C10,12.7,12,16,12,16h-1.6l-1-1.7c-0.9-1.6-2.1-1.6-2.1-1.6V16H6z M7.3,11.4h1c0.9,0,1.7,0.1,1.7-1
	c0-1-0.8-1-1.7-1h-1V11.4z"/>
<path class="White" d="M16.2,16V9.4H14V8h6v1.4h-2.2V16H16.2z"/>
<path class="White" d="M22,16V8h6v1.4h-4.2v1.9h3.7v1.4h-3.7V16H22z"/>
</svg>
