<?xml version="1.0" encoding="utf-8"?>
<!-- Generator: Adobe Illustrator 20.1.0, SVG Export Plug-In . SVG Version: 6.00 Build 0)  -->
<svg version="1.1" id="Слой_1" xmlns="http://www.w3.org/2000/svg" xmlns:xlink="http://www.w3.org/1999/xlink" x="0px" y="0px"
	 viewBox="0 0 32 32" style="enable-background:new 0 0 32 32;" xml:space="preserve">
<style type="text/css">
	.Green{fill:#039C23;}
	.Black{fill:#727272;}
	.White{fill:#FFFFFF;}
</style>
<path class="Black" d="M26,2H8C6.9,2,6,2.9,6,4v22c0,1.1,0.9,2,2,2h18c1.1,0,2-0.9,2-2V4C28,2.9,27.1,2,26,2z M26,26H8V4h18V26z"/>
<rect x="4" y="6" class="Green" width="26" height="12"/>
<path class="White" d="M6,16l2.2-4.2L6.2,8h1.5L9,10.6L10.3,8h1.5l-2,3.9L12,16h-1.6L9,13.2L7.6,16H6z"/>
<path class="White" d="M14,16V8h1.7v6.6H20V16H14z"/>
<path class="White" d="M22,13.3l1.4-0.1c0.1,0.5,0.6,1.5,1.6,1.5s1.5-0.3,1.5-1s-1.4-1.1-2-1.2c-0.8-0.2-1.3-0.4-1.6-0.7
	c-0.5-0.4-0.7-0.9-0.7-1.6c0-0.4,0.1-0.8,0.3-1.1c0.2-0.3,0.5-0.6,0.9-0.8S24.4,8,25,8c0.9,0,1.6,0.2,2.1,0.6c0.5,0.4,0.7,1,0.7,1.7
	l-1.5,0.1C26.1,10,26,9.7,25.8,9.5s-0.5-0.3-0.9-0.3c-1,0-1.2,0.6-1.2,0.8c0,1,0.8,1,1.6,1.2c0.8,0.2,2,0.6,2.4,1.2
	c0.2,0.3,0.3,0.7,0.3,1.2c0,1.4-1,1.9-1.4,2.1S25.6,16,25,16C22.5,16,22.1,14.2,22,13.3z"/>
</svg>
